<?xml version="1.0" encoding="iso-8859-1"?>
<!-- Generator: Adobe Illustrator 19.0.0, SVG Export Plug-In . SVG Version: 6.00 Build 0)  -->
<svg version="1.1" id="Capa_1" xmlns="http://www.w3.org/2000/svg" xmlns:xlink="http://www.w3.org/1999/xlink" x="0px" y="0px"
	 viewBox="0 0 512 512" style="enable-background:new 0 0 512 512;" xml:space="preserve">
<g>
	<g>
		<g>
			<path d="M0,250.24c33.371-14.263,100.754-34.194,155.429,5.303v-64.274L0,158.537V250.24z"/>
			<path d="M173.714,510.903l30.354-6.4c-8.577-14.759-18.757-28.526-30.354-41.051V510.903z"/>
			<path d="M369.28,162.834c-6.4,14.537-13.897,29.806-21.851,44.8v1.737c6.034,13.074,49.463,97.92,164.571,102.309V191.36
				L369.28,162.834z"/>
			<path d="M0,270.263v73.417c56.332,15.787,109.101,42.264,155.429,77.989V279.406C103.497,230.583,32.914,254.629,0,270.263z"/>
			<path d="M206.994,353.097c-9.238-19.033-20.389-37.076-33.28-53.851V437.76c19.556,18.258,36.151,39.449,49.189,62.811
				l106.24-22.4V439.04C247.954,430.903,228.846,394.789,206.994,353.097z"/>
			<path d="M0,478.171l155.429,32.731v-65.28C101.029,396.891,32.183,372.206,0,362.697V478.171z"/>
			<path d="M347.429,440.411v37.669L512,510.994V403.566c-22.217,14.629-68.937,37.303-145.28,37.303
				C360.503,440.869,354.011,440.686,347.429,440.411z"/>
			<path d="M347.429,244.571v177.371c100.846,5.029,152.686-31.269,164.571-41.051v-51.017
				c-52.2-0.825-102.188-21.218-140.069-57.143C362.977,264.06,354.779,254.639,347.429,244.571z"/>
			<path d="M267.977,61.257c-20.198,0-36.571,16.374-36.571,36.571c0,20.198,16.374,36.571,36.571,36.571
				c20.198,0,36.571-16.374,36.571-36.571C304.522,77.642,288.164,61.284,267.977,61.257z"/>
			<path d="M267.977,1.006c-56.411,0-102.217,42.971-102.217,95.726c0,40.96,65.097,153.691,99.931,204.891
				c0.556,0.694,1.397,1.097,2.286,1.097c0.889,0,1.73-0.404,2.286-1.097c21.547-32.25,41.443-65.573,59.611-99.84
				c0-0.091,0.091-0.183,0.091-0.274c22.126-41.874,40.229-83.291,40.229-104.777C370.194,43.977,324.297,1.006,267.977,1.006z
				 M267.977,152.686c-30.297,0-54.857-24.56-54.857-54.857s24.56-54.857,54.857-54.857s54.857,24.56,54.857,54.857
				C322.81,128.115,298.264,152.662,267.977,152.686z"/>
			<path d="M267.977,321.006c-6.955,0.035-13.483-3.348-17.463-9.051c-26.023-39.213-49.743-79.906-71.04-121.874l-5.76,1.189
				v80.366c20.116,21.671,36.825,46.272,49.554,72.96c20.663,39.68,36.023,68.663,105.874,76.069V240.914
				c-18.103,31.543-35.383,58.606-43.794,71.04C281.421,317.669,274.911,321.061,267.977,321.006z"/>
		</g>
	</g>
</g>
<g>
</g>
<g>
</g>
<g>
</g>
<g>
</g>
<g>
</g>
<g>
</g>
<g>
</g>
<g>
</g>
<g>
</g>
<g>
</g>
<g>
</g>
<g>
</g>
<g>
</g>
<g>
</g>
<g>
</g>
</svg>
