<svg id="line_icons" height="512" viewBox="0 0 74 74" width="512" xmlns="http://www.w3.org/2000/svg" data-name="line icons"><path d="m3 68.514a1 1 0 0 1 -1-1v-49.823a1 1 0 0 1 .679-.947l21.581-7.304a1 1 0 0 1 1.321.947v49.823a1 1 0 0 1 -.68.948l-21.58 7.3a.987.987 0 0 1 -.321.056zm1-50.106v47.712l19.581-6.627v-47.712z"/><path d="m46.158 68.513a1 1 0 0 1 -1-1v-49.822a1 1 0 0 1 .679-.947l7.563-2.562a1 1 0 1 1 .642 1.9l-6.88 2.331v47.706l19.584-6.625v-36.376a1 1 0 1 1 2 0v37.093a1 1 0 0 1 -.68.947l-21.584 7.3a.976.976 0 0 1 -.324.055z"/><path d="m46.161 68.514a.987.987 0 0 1 -.321-.053l-21.58-7.3a1 1 0 0 1 -.679-.948v-49.826a1 1 0 0 1 1.319-.947l21.581 7.3a1 1 0 0 1 .679.947v49.827a1 1 0 0 1 -1 1zm-20.58-9.021 19.58 6.627v-47.712l-19.58-6.627z"/><path d="m3 36.5a1 1 0 0 1 -.437-1.9l21.581-10.473a1 1 0 1 1 .873 1.8l-21.58 10.473a1 1 0 0 1 -.437.1z"/><path d="m46.162 44.473a1 1 0 0 1 -.612-1.791l21.58-16.662a1 1 0 1 1 1.223 1.58l-21.581 16.665a1 1 0 0 1 -.61.208z"/><path d="m46.16 38.046a1 1 0 0 1 -.6-.2l-21.58-16.185a1 1 0 0 1 1.2-1.6l21.58 16.185a1 1 0 0 1 -.6 1.8z"/><path d="m24.581 58.041a1 1 0 0 1 -.423-1.907l20.906-9.759a1 1 0 0 1 .846 1.813l-20.91 9.759a.989.989 0 0 1 -.419.094z"/><path d="m67.741 54.113a1 1 0 0 1 -.616-.213l-16.9-13.251a1 1 0 0 1 1.234-1.574l16.9 13.251a1 1 0 0 1 -.617 1.787z"/><path d="m24.581 51.376a1 1 0 0 1 -.338-.059l-21.58-7.735a1 1 0 0 1 .674-1.882l21.581 7.735a1 1 0 0 1 -.337 1.942z"/><path d="m62.356 31.962a1 1 0 0 1 -.788-.384c-.906-1.16-8.855-11.474-8.855-16.449a9.644 9.644 0 0 1 19.287 0c0 4.975-7.949 15.289-8.855 16.449a1 1 0 0 1 -.789.384zm0-24.476a7.652 7.652 0 0 0 -7.643 7.643c0 3.276 4.952 10.581 7.643 14.184 2.692-3.603 7.644-10.908 7.644-14.184a7.652 7.652 0 0 0 -7.644-7.643z"/><path d="m62.356 20.872a5.743 5.743 0 1 1 5.744-5.743 5.75 5.75 0 0 1 -5.744 5.743zm0-9.485a3.743 3.743 0 1 0 3.744 3.742 3.747 3.747 0 0 0 -3.744-3.742z"/><path d="m34.565 53.26a1 1 0 0 1 -.788-.384c-.628-.8-6.131-7.946-6.131-11.458a6.919 6.919 0 0 1 13.838 0c0 3.512-5.5 10.655-6.131 11.458a1 1 0 0 1 -.788.384zm0-16.76a4.924 4.924 0 0 0 -4.919 4.918c0 1.891 2.756 6.255 4.919 9.187 2.163-2.933 4.919-7.3 4.919-9.187a4.924 4.924 0 0 0 -4.919-4.918z"/><path d="m34.565 45.2a3.78 3.78 0 1 1 3.78-3.78 3.785 3.785 0 0 1 -3.78 3.78zm0-5.56a1.78 1.78 0 1 0 1.78 1.78 1.782 1.782 0 0 0 -1.78-1.782z"/></svg>