<svg xmlns="http://www.w3.org/2000/svg" viewBox="0 0 384 512" width="384" height="512">
	<style>
		tspan { white-space:pre }
		.shp0 { fill: #0078ae } 
		.shp1 { fill: #ffffff } 
	</style>
	<path id="Layer" class="shp0" d="M172.27 501.67C26.97 291.03 0 269.41 0 192C0 85.96 85.96 0 192 0C298.04 0 384 85.96 384 192C384 269.41 357.03 291.03 211.73 501.67C202.2 515.44 181.8 515.44 172.27 501.67Z" />
	<path id="Layer" fill-rule="evenodd" class="shp1" d="M281.72 118.56L101.28 118.56L101.28 96L281.72 96L281.72 118.56ZM281.72 208.78L281.72 276.44L259.17 276.44L259.17 208.78L214.06 208.78L214.06 276.44L101.28 276.44L101.28 208.78L90 208.78L90 186.22L101.28 129.83L281.72 129.83L293 186.22L293 208.78L281.72 208.78ZM191.5 208.78L123.83 208.78L123.83 253.89L191.5 253.89L191.5 208.78Z" />
</svg>