<svg xmlns="http://www.w3.org/2000/svg" viewBox="0 0 384 512" width="384" height="512">
	<style>
		tspan { white-space:pre }
		.shp0 { fill: #3498db } 
		.shp1 { fill: #ffffff } 
	</style>
	<path id="Layer" class="shp0" d="M172.27 501.67C26.97 291.03 0 269.41 0 192C0 85.96 85.96 0 192 0C298.04 0 384 85.96 384 192C384 269.41 357.03 291.03 211.73 501.67C202.2 515.44 181.8 515.44 172.27 501.67Z" />
	<path id="Layer" fill-rule="evenodd" class="shp1" d="M290.61 118.78L92.39 118.78L92.39 94L290.61 94L290.61 118.78ZM290.61 217.89L290.61 292.22L265.83 292.22L265.83 217.89L216.28 217.89L216.28 292.22L92.39 292.22L92.39 217.89L80 217.89L80 193.11L92.39 131.17L290.61 131.17L303 193.11L303 217.89L290.61 217.89ZM191.5 217.89L117.17 217.89L117.17 267.44L191.5 267.44L191.5 217.89Z" />
</svg>