<svg xmlns="http://www.w3.org/2000/svg" viewBox="0 0 384 512" width="384" height="512">
	<style>
		tspan { white-space:pre }
		.shp0 { fill: #ffb012 } 
		.shp1 { fill: #ffffff } 
	</style>
	<path id="Layer" class="shp0" d="M172.27 501.67C26.97 291.03 0 269.41 0 192C0 85.96 85.96 0 192 0C298.04 0 384 85.96 384 192C384 269.41 357.03 291.03 211.73 501.67C202.2 515.44 181.8 515.44 172.27 501.67Z" />
	<path id="Layer" fill-rule="evenodd" class="shp1" d="M288.83 114.33L94.17 114.33L94.17 90L288.83 90L288.83 114.33ZM288.83 211.67L288.83 284.67L264.5 284.67L264.5 211.67L215.83 211.67L215.83 284.67L94.17 284.67L94.17 211.67L82 211.67L82 187.33L94.17 126.5L288.83 126.5L301 187.33L301 211.67L288.83 211.67ZM191.5 211.67L118.5 211.67L118.5 260.33L191.5 260.33L191.5 211.67Z" />
</svg>