<svg xmlns="http://www.w3.org/2000/svg" viewBox="0 0 512 512" width="512" height="512">
	<style>
		tspan { white-space:pre }
		.shp0 { fill: #e31837 } 
		.shp1 { fill: #0078ae } 
	</style>
	<g id="Layer">
		<g id="Layer">
			<path id="Layer" class="shp0" d="M439.67 481.89L238.29 375.26C233.05 372.48 226.65 372.86 221.69 376.22L67.7 482.85C61.94 486.85 59.44 494.11 61.56 500.8C63.6 507.42 69.81 512 76.79 512L432.15 512C439.48 512 445.91 507.01 447.67 499.84C449.46 492.7 446.13 485.31 439.67 481.89Z" />
		</g>
	</g>
	<g id="Layer">
		<g id="Layer">
			<path id="Layer" class="shp0" d="M507.06 451.49L459.7 238.27C458.55 233.06 454.87 228.8 449.91 226.85C444.92 224.9 439.32 225.57 434.96 228.58L280.95 335.2C276.34 338.4 273.75 343.74 274.1 349.28C274.42 354.88 277.65 359.87 282.58 362.46L483.93 469.09C486.29 470.34 488.85 470.98 491.41 470.98C494.84 470.98 498.26 469.89 501.11 467.68C506.07 463.9 508.4 457.6 507.06 451.49Z" />
		</g>
	</g>
	<g id="Layer">
		<g id="Layer">
			<path id="Layer" class="shp1" d="M395.64 203.23C393.52 196.54 387.35 192 380.34 192L234.29 192C207.73 240.1 168.44 286.08 152.28 304.06C143.19 314.18 130.16 320 116.56 320C102.97 320 89.94 314.18 80.85 304.06C74.61 297.12 64.95 286.02 53.88 272.26L15.16 446.53C13.75 452.96 16.4 459.58 21.84 463.26C24.53 465.09 27.67 465.98 30.77 465.98C33.97 465.98 37.14 465.06 39.89 463.14L389.43 221.12C395.22 217.18 397.69 209.92 395.64 203.23Z" />
		</g>
	</g>
	<g id="Layer">
		<g id="Layer">
			<path id="Layer" fill-rule="evenodd" class="shp1" d="M228.56 112C228.56 169.47 138.71 271.26 128.47 282.69C125.43 286.05 121.11 288 116.56 288C112.02 288 107.7 286.05 104.66 282.69C94.42 271.26 4.56 169.47 4.56 112C4.56 50.24 54.8 0 116.56 0C178.32 0 228.56 50.24 228.56 112ZM164.56 112C164.56 85.5 143.06 64 116.56 64C90.07 64 68.56 85.5 68.56 112C68.56 138.5 90.07 160 116.56 160C143.06 160 164.56 138.5 164.56 112Z" />
		</g>
	</g>
	<g id="Layer">
	</g>
	<g id="Layer">
	</g>
	<g id="Layer">
	</g>
	<g id="Layer">
	</g>
	<g id="Layer">
	</g>
	<g id="Layer">
	</g>
	<g id="Layer">
	</g>
	<g id="Layer">
	</g>
	<g id="Layer">
	</g>
	<g id="Layer">
	</g>
	<g id="Layer">
	</g>
	<g id="Layer">
	</g>
	<g id="Layer">
	</g>
	<g id="Layer">
	</g>
	<g id="Layer">
	</g>
</svg>