<svg xmlns="http://www.w3.org/2000/svg" viewBox="0 0 700 700" width="700" height="700">
	<style>
		tspan { white-space:pre }
		.shp0 { fill: #e31837;stroke: #ffffff;paint-order:stroke fill markers;stroke-width: 50 } 
		.shp1 { fill: #0078ae;stroke: #ffffff;paint-order:stroke fill markers;stroke-width: 50 } 
	</style>
	<g id="Layer">
		<g id="Layer">
			<path id="Layer" class="shp0" d="M533.41 575.68L332.03 469.05C326.78 466.27 320.38 466.65 315.42 470.01L161.44 576.64C155.68 580.64 153.18 587.9 155.3 594.59C157.34 601.21 163.55 605.79 170.53 605.79L525.89 605.79C533.22 605.79 539.65 600.8 541.41 593.63C543.2 586.49 539.87 579.1 533.41 575.68Z" />
		</g>
	</g>
	<g id="Layer">
		<g id="Layer">
			<path id="Layer" class="shp0" d="M600.8 545.28L553.44 332.06C552.29 326.84 548.61 322.59 543.65 320.64C538.66 318.68 533.06 319.36 528.7 322.36L374.69 428.99C370.08 432.19 367.49 437.53 367.84 443.07C368.16 448.67 371.39 453.66 376.32 456.25L577.66 562.88C580.03 564.12 582.59 564.76 585.15 564.76C588.58 564.76 592 563.68 594.85 561.47C599.81 557.69 602.14 551.39 600.8 545.28Z" />
		</g>
	</g>
	<g id="Layer">
		<g id="Layer">
			<path id="Layer" class="shp1" d="M489.3 296.53C487.17 289.85 480.98 285.32 473.98 285.33L327.93 285.7C301.49 333.87 262.31 379.95 246.2 397.97C237.13 408.11 224.12 413.96 210.52 414C196.92 414.03 183.89 408.24 174.77 398.15C168.51 391.22 158.82 380.15 147.72 366.41L109.44 540.78C108.04 547.22 110.72 553.84 116.17 557.5C118.86 559.32 122 560.21 125.1 560.2C128.3 560.19 131.47 559.25 134.21 557.33L483.14 314.43C488.92 310.48 491.37 303.21 489.3 296.53Z" />
		</g>
	</g>
	<path id="Layer" fill-rule="evenodd" class="shp1" d="M322 205.72C322.14 263.19 232.55 365.21 222.33 376.66C219.3 380.02 214.99 381.99 210.44 382C205.9 382.01 201.57 380.07 198.53 376.72C188.26 365.32 98.14 263.75 98 206.28C97.84 144.52 147.96 94.16 209.72 94C271.48 93.84 321.84 143.96 322 205.72ZM258 205.88C257.93 179.38 236.37 157.93 209.88 158C183.38 158.07 161.93 179.62 162 206.12C162.07 232.62 183.62 254.07 210.12 254C236.62 253.93 258.07 232.37 258 205.88Z" />
</svg>