<svg xmlns="http://www.w3.org/2000/svg" viewBox="0 0 480 480" width="480" height="480">
	<style>
		tspan { white-space:pre }
		.shp0 { fill: #8b8b8b } 
		.shp1 { fill: #c5c5c5 } 
	</style>
	<g id="Layer">
		<path id="Layer" fill-rule="evenodd" class="shp0" d="M272 3.6C368 16.2 447.3 86.5 472 181C480.1 211.9 481.7 248.3 476.4 279.9C463.6 356.9 414.6 422.5 344.5 456.5C268.4 493.5 177.6 487.3 107.4 440.5C94.1 431.6 88.3 427 76.5 416C36.7 379 11.2 330.2 2.9 275.5C-1 250 0.1 215.6 5.6 190.5C28.9 84.6 118.9 7.9 227.5 1.6C237.7 1 259.9 2 272 3.6ZM225.5 50.6C223.9 50.8 218.5 51.5 213.5 52.1C181.9 56 146.9 70.9 121.5 91.3C113.9 97.4 98.5 112.7 92.1 120.5C78.2 137.3 66.2 159.1 59.1 180.5C43.3 228.1 46.6 279.5 68.4 324.5C77.6 343.4 87.7 357.7 102.9 373.3C125.5 396.5 150.6 412.4 180.1 422.1C239 441.4 300.8 431.8 352.3 395.3C363.5 387.3 387 363.7 395.2 352C412.2 328 422.8 302.5 428.2 273C431.2 256.6 431.2 225.4 428.2 209C422.8 179.5 412.1 154 395.2 130C386.4 117.5 363.3 94.4 351 85.8C326.2 68.3 299.5 57.4 270 52.5C260.8 51 231.6 49.7 225.5 50.6Z" />
		<path id="Shape 2" class="shp0" d="M805 388C777.35 388 755 365.65 755 338C755 310.35 777.35 288 805 288C832.65 288 855 310.35 855 338C855 365.65 832.65 388 805 388Z" />
		<path id="Shape 1" class="shp1" d="M240.5 432C134.6 432 49 346.4 49 240.5C49 134.6 134.6 49 240.5 49C346.4 49 432 134.6 432 240.5C432 346.4 346.4 432 240.5 432Z" />
	</g>
</svg>